<?xml version="1.0" encoding="utf-8"?>
<!-- Generator: Adobe Illustrator 21.0.2, SVG Export Plug-In . SVG Version: 6.00 Build 0)  -->
<svg version="1.1" id="Layer_1" xmlns="http://www.w3.org/2000/svg" xmlns:xlink="http://www.w3.org/1999/xlink" x="0px" y="0px"
	 viewBox="0 0 2500 1702.2" style="enable-background:new 0 0 2500 1702.2;" xml:space="preserve">
<style type="text/css">
	.st0{fill:#00758F;}
	.st1{fill:#F29111;}
</style>
<title>mysql</title>
<g>
	<path class="st0" d="M601,1550.9h-96.4c-3.3-162.8-12.6-316.3-28.1-460.6l0,0l-147.7,460.6h-73.4l-146.1-460.6l0,0
		c-10.7,138.2-17.5,291.7-20.3,460.6H0c5.7-205.5,19.9-398.2,42.7-578h120l139.2,424.6l0,0l140-424.6h114.3
		c25,210.5,39.7,403.2,44.4,578L601,1550.9z"/>
	<path class="st0" d="M1019.5,1124.4c-39.2,213.4-91,368.7-155.4,465.9c-50,74.7-105,112-164.8,111.9c-20.3-1-40.3-5.8-58.8-14.2
		v-51.5c13.5,1.8,27.1,2.6,40.7,2.4c24.6,1.1,48.7-7.2,67.3-23.2c19-15.6,30.2-38.7,30.7-63.3c-4-33.7-11.9-66.7-23.8-98.5
		l-105.8-329.6h94.6l76.1,246.6c17.1,56,24.2,95.1,21.4,117.2c43-117.5,72.3-239.5,87.1-363.8L1019.5,1124.4z"/>
	<path class="st1" d="M1442.1,1390.6c1.2,46.3-18.5,90.7-53.7,120.8c-40.6,32.9-92,49.7-144.2,47c-58.8-0.6-116-19-164-52.9
		l24.8-49.6c38,20.8,80.4,32.5,123.7,34.2c28.9,1.6,57.6-6.5,81.4-23c20.1-15.2,31.7-39.1,31.3-64.3c0-34.2-23.8-63.5-67.7-88.1
		c-40.7-22.4-122.1-68.8-122.1-68.8c-42.3-25.9-67.5-72.5-65.9-122.1c-1.5-43.3,16.6-85,49.2-113.5c35.3-29.8,80.6-45.3,126.7-43.3
		c51.8-0.4,102.6,14.5,145.9,42.9l-21,48c-34.9-15.5-72.7-23.7-110.9-24c-24.5-1.9-48.9,5.3-68.4,20.3
		c-16.3,13.6-25.7,33.7-25.8,54.9c0,34.2,24.4,63.9,69.4,88.9c40.7,22.2,123.7,69.6,123.7,69.6c45.2,31.9,67.5,66.1,67.5,122.1
		V1390.6z"/>
	<path class="st1" d="M1614.4,1435.1c-23.2-37.6-35-98.1-35-181.3c0-145.7,44.1-218.4,132.4-218.3c40.9-2.8,80.1,17.2,101.7,52.1
		c23.5,37.6,35.1,97.5,35,179.9c0,146.8-44.1,220.1-132.2,219.9c-40.9,2.7-80-17.3-101.7-52.1L1614.4,1435.1z M1957.6,1564.7
		l-106.2-52.3c9.6-7.8,18.5-16.4,26.4-25.8c45-53,67.5-131.5,67.5-235.4c0-191.2-74.6-286.9-223.8-286.9
		c-65.6-3.5-129.2,23.5-172.1,73.2c-44.9,53.2-67.3,131.4-67.3,234.6s19.9,177.8,59.8,223.8c36.2,42.7,91.1,64.3,164.6,64.3
		c25.5,0.2,50.9-3.2,75.5-10.2l137.9,80.4l37.6-64.9V1564.7z"/>
	<polygon class="st1" points="2303.5,1550.9 2029.4,1550.9 2029.4,972.9 2121.6,972.9 2121.6,1479.7 2303.5,1479.7 2303.5,1550.9 	
		"/>
	<path class="st1" d="M2369.2,1550.7h15.3v-58.8h20.3v-12h-56.2v12h20.3v58.8H2369.2z M2485.6,1550.7h14.4v-70.8h-21.8l-17.7,48.4
		l-19.1-48.4h-20.3v70.8h13.6V1497l0,0l20.3,53.7h10.4l20.3-53.7v53.7H2485.6z"/>
	<path class="st0" d="M2419.2,779.4c-46-2.9-92,4-135.1,20.3c-10.4,4.3-27.1,4.3-28.5,17.5c5.5,5.5,6.1,14.6,11.2,22.4
		c9.4,16.2,21.6,30.6,36,42.5c14.6,11.2,29.3,22.4,44.8,32.1c27.1,16.7,57.8,26.4,84,43.3c15.5,9.8,30.7,22.2,46.2,32.8
		c7.5,5.5,12.4,14.6,22.2,18.1v-2c-4.9-6.3-6.3-15.5-11.2-22.4l-20.3-20.3c-20.4-27.1-44.9-50.9-72.4-70.6
		c-22.4-15.5-71.2-36.4-80.2-61l-1.4-1.4c16.3-2.4,32.4-6.2,48-11.4c23.8-6.1,45.4-4.7,69.6-11c11.2-2.8,22.4-6.3,33.6-9.8v-6.3
		c-12.6-12.6-21.6-29.3-34.8-40.7c-36.1-31.5-74.5-60.2-114.9-85.9c-21.6-13.8-49.4-23-72.4-34.8c-8.3-4.3-22.2-6.3-27.1-13.4
		c-11.5-16.8-21.1-34.8-28.7-53.7c-20.3-38.2-40.7-81.4-57-122.1c-10.1-27.7-21.9-54.8-35.2-81.2c-64.7-110-158.2-200.3-270.4-261.2
		C1797,85.5,1767,75.9,1736,70.8c-17.3,0-34.8-2.2-52.1-2.8c-11.3-7.3-22-15.5-32.1-24.4c-40.7-25.2-142.4-79.5-171.3-7.7
		c-18.7,45.6,27.9,90.1,43.9,113.1c13.4,16.3,25.3,33.8,35.4,52.3c4.9,12,6.3,24.6,11.2,37c10.2,31.9,22.3,63.1,36.2,93.6
		c7.5,15.1,16.2,29.5,25.8,43.3c5.5,7.7,15.3,11.2,17.3,23.8c-7.6,16.6-13,34.2-15.9,52.3c-25.2,78.9-15.5,176.6,20.3,234.6
		c11,17.5,37.6,55.9,73,40.7c31.3-12.4,24.4-52.3,33.6-87.1c2-8.5,0-14,4.7-20.3v1.2c9.8,20.3,20.3,38.5,28.7,58
		c24.7,36.4,55.2,68.4,90.3,94.8c16.7,12.6,29.9,34.2,50.9,41.9v-1.2h-1.4c-4.7-5.4-10.1-10.1-16.1-14c-13.2-12.9-25.3-27-36.2-41.9
		c-29.5-40.1-55.6-82.6-77.9-127.2c-11.2-21.8-20.3-45.6-29.9-67.1c-4.3-8.3-4.3-20.3-11.2-25c-13.1,14.2-24.5,29.9-34,46.8
		c-11.6,34-18.5,69.5-20.3,105.4c-2.8,0-1.4,0-2.8,1.4c-22.2-5.7-29.9-28.7-38.2-48.2c-21.7-59.9-23.9-125.1-6.3-186.4
		c4.9-14.6,25.8-61,17.3-74.7c-4.1-13.4-18.1-20.3-25.6-31.5c-9.8-14-18.2-28.9-25-44.6c-16.7-39.3-25.2-82.4-43.1-122.1
		c-10.2-18.8-21.9-36.8-35-53.7c-14.5-16.8-27.3-35-38.2-54.3c-3.5-7.7-8.3-20.3-2.8-28.7c0.9-4.9,4.8-8.6,9.8-9.2
		c9.2-7.7,34.8,2,43.9,6.3c24.8,9.4,48.4,21.5,70.4,36.2c9.8,6.9,20.3,20.3,32.6,23.6h14.6c22.4,4.9,47.4,1.4,68.4,7.7
		c35.3,11.8,69,28,100.3,48.2c92.2,59,167.2,141.4,217.1,238.9c8.5,15.9,12,30.7,20.3,47.4c14.6,34.2,32.8,69.2,47.4,101.7
		c12.9,33,29.4,64.4,49.4,93.6c10.6,14.6,52.3,22.4,71,30.1c16.4,5.9,32.5,12.7,48.2,20.3c23.6,14.6,47.2,31.3,69.6,47.4
		c11,8.5,46,25.8,48,40.7L2419.2,779.4z"/>
	<path class="st0" d="M1709,172.5c-9.7-0.1-19.3,1.1-28.7,3.7v1.4h1.4c6.8,10,14.3,19.5,22.4,28.5c5.5,11.2,10.4,22.4,15.9,33.6
		l1.4-1.4c10.5-8.3,16-21.5,14.6-34.8c-4.1-4.9-4.9-9.8-8.3-14.6c-3.5-4.9-13.2-10.4-18.7-16.1V172.5z"/>
</g>
</svg>
