<?xml version="1.0" encoding="utf-8"?>
<!-- Generator: Adobe Illustrator 21.0.2, SVG Export Plug-In . SVG Version: 6.00 Build 0)  -->
<svg version="1.1" id="Layer_1" xmlns="http://www.w3.org/2000/svg" xmlns:xlink="http://www.w3.org/1999/xlink" x="0px" y="0px"
	 viewBox="0 0 2500 1498.4" style="enable-background:new 0 0 2500 1498.4;" xml:space="preserve">
<style type="text/css">
	.st0{fill:#6884BA;}
</style>
<g>
	<path class="st0" d="M1250,1498.4c690.3,0,1250-335.4,1250-749.3C2500,335.4,1940.3,0,1250,0S0,335.4,0,749.3
		C0,1163,559.7,1498.4,1250,1498.4L1250,1498.4z M1910,601.3c-9.6-12.5-34.8-18.8-75.9-18.8h-62.1l-36.4,221.1h35.6
		c25,0,46.2-2.6,63.9-7.9c15.5-4.6,27.9-11.1,37.2-19.5c9.2-8.2,16.9-19.7,23.4-34.7c7.3-16.6,13.2-37.3,17.3-62.1
		c3.9-23.1,4.9-42.1,3.3-57.3C1915.3,612.4,1913.2,605.4,1910,601.3L1910,601.3z M1110,165.1h138.5c22.4,0,40.7,21.7,40.7,48.1
		c0,4.1-0.4,8.2-1.2,12l-23.2,141.3h74.1c42.1,0,78.1,4.6,108.2,13.5c33.4,10.1,60,25.7,80,47.4c17.3,18.8,29.5,41.9,36.8,69.3
		l14.4-88.3c2.6-23.6,19.7-41.9,40.3-41.9h268.6c44.8,0,84.2,7.2,118.4,21.9c36,15.4,65.7,38.7,88.9,70
		c23.4,31.8,38.7,69.3,45.6,112.9c6.5,41.1,5.7,86.9-2.6,137.6c-3.5,20.5-8.1,40.7-14,60.4c-5.9,19.5-13,38-21.4,55.6
		c-8.5,17.8-18.1,34.9-28.7,50.5c-10.8,15.9-22.8,31.3-36,45.5l0,0c-16.1,17.8-33,33-50.7,45.5c-18.3,13-37.2,23.1-57,30.8
		c-19.1,7.5-41.1,13-65.5,16.6c-24.2,3.6-50,5.5-77.3,5.5h-86.1l-26.9,159.8c-2.6,23.6-19.7,41.9-40.3,41.9h-139.6l0,0
		c-2.4,0-5.1-0.2-7.7-1c-22-5.1-36.4-30.1-32.3-56.3l24-146.1c-3.3,1-6.7,1.4-10.2,1.4l0,0h-140.8c-22.4,0-40.7-21.7-40.7-48.1
		c0-4.1,0.4-8.2,1.2-12l54.5-332.3c2.4-14.7,3.3-26,2.4-34.2c-0.2-2.4,1.4-1.2,0.8-2.2l-5.7-1.7c-8.1-2.4-19.5-3.6-34.2-3.6h-77.3
		l-64.5,395.4c-3.7,23.1-20.8,39-39.9,39l0,0H985.3c-22.4,0-40.7-21.7-40.7-48.1c0-4.1,0.4-8.2,1.2-12l7.3-45l-6.1,6.7l0,0
		c-16.1,17.8-33,33-50.7,45.5c-18.3,13-37.2,23.1-57,30.8c-19.1,7.5-41.1,13-65.5,16.6c-24.2,3.6-50,5.5-77.3,5.5h-86.3l-26.2,159.8
		c-2.6,23.6-19.7,41.9-40.3,41.9H404.3l0,0c-2.4,0-5.1-0.2-7.7-1c-22-5.1-36.4-30.1-32.3-56.3l124.1-755.3
		c2.6-23.6,19.7-41.9,40.3-41.9h268.6c44.8,0,84.2,7.2,118.4,21.9c36.2,15.4,65.7,38.7,88.9,70c6.9,9.4,13.2,19.5,18.9,30.1
		l46.8-284.2C1073.8,181.2,1090.9,165.1,1110,165.1L1110,165.1L1110,165.1z M820.3,601.3c-9.6-12.5-34.8-18.8-75.9-18.8h-62.3
		l-36.4,221.1h35.6c25,0,46.2-2.6,63.9-7.9c15.5-4.6,27.9-11.1,37.2-19.5c9.2-8.2,16.9-19.7,23.4-34.7c7.3-16.6,13.2-37.3,17.3-62.1
		c3.9-23.1,4.9-42.1,3.3-57.3C825.4,612.4,823.4,605.4,820.3,601.3L820.3,601.3z"/>
	<path d="M1834.1,534.4c53.1,0,88.5,11.6,106,34.7c17.7,23.1,21.8,62.8,12.6,119.4c-9.6,58.7-28.3,100.6-55.7,125.6
		c-27.5,25-69.6,37.5-125.7,37.5h-84.8l52.1-317.4h95.6V534.4z M1110,213.2h138.5l-33.2,201.7h123.5c77.7,0,131.2,16.1,160.7,48.1
		c29.5,32,38.2,84,26.4,155.7l-58,352.8h-140.8l55.1-335.4c6.3-38.3,3.9-64.2-6.9-78c-11-14-34-20.9-69.6-20.9h-110.7l-71.4,434.3
		H985.3L1110,213.2L1110,213.2z M744.4,534.4c53.1,0,88.5,11.6,106,34.7c17.7,23.1,22,62.8,12.6,119.4
		c-9.6,58.7-28.3,100.6-55.7,125.6c-27.5,25-69.6,37.5-125.7,37.5h-84.8l52.1-317.4h95.6V534.4z M404.3,1172.8h139.6L577,971.2
		h119.6c52.7,0,96.2-6.5,130.2-19.7c34.2-13,65.1-35.1,93-65.9c23.4-25.5,42.3-53.4,56.8-84.2c14.4-30.6,24.8-64.5,30.9-101.5
		c14.9-89.8,3.7-159.8-33.4-210.1c-37-50.1-96-75.3-176.8-75.3H528.8L404.3,1172.8L404.3,1172.8z M1493.9,1172.8h139.6l33.2-201.7
		h119.6c52.7,0,96.2-6.5,130.2-19.7c34.2-13,65.1-35.1,93-65.9c23.4-25.5,42.3-53.4,56.8-84.2c14.4-30.6,24.8-64.5,30.9-101.5
		c14.9-89.8,3.7-159.8-33.4-210.1c-37-50.1-96-75.3-176.8-75.3h-268.6L1493.9,1172.8L1493.9,1172.8z"/>
</g>
</svg>
